<?xml version="1.0" encoding="utf-8"?>
<!-- Generator: Adobe Illustrator 19.0.0, SVG Export Plug-In . SVG Version: 6.00 Build 0)  -->
<svg version="1.1" id="圖層_1" xmlns="http://www.w3.org/2000/svg" xmlns:xlink="http://www.w3.org/1999/xlink" x="0px" y="0px"
	 viewBox="0 0 215 79.3" style="enable-background:new 0 0 215 79.3;" xml:space="preserve">
<style type="text/css">
	.st0{fill-rule:evenodd;clip-rule:evenodd;fill:#DD852A;}
</style>
<g id="XMLID_2759_">
	<path id="XMLID_2764_" class="st0" d="M49.1,78.3c-1.7-1.3-1.8-2-0.2-3.4c1.4-1.2,2.9-2.1,4.3-3.3c1.5-1.2,3.1-2.4,4.4-3.8
		c1.5-1.6,1.9-3.6,1.1-5.8c-0.5-1.3-1.3-1.8-2.5-1c-4,2.8-7,6.3-8.1,11.1c-0.1,0.6,0,1.5-0.4,1.9c-0.6,0.7-1.6,1.5-2.3,1.4
		c-0.6-0.1-1.5-1.3-1.6-2.1c-0.2-2.1-0.1-4.2-0.1-6.5c-0.8,0.7-1.5,1.4-2.3,1.9c-1.6,1.2-3.1,2.5-4.8,3.3c-3.8,1.9-5.8,1.3-8.4-2.3
		c-1.1,1.1-2.2,2.3-3.5,3.3c-1.1,0.9-2.3,1.6-3.6,2.2c-3.6,1.5-6.2-0.3-6.2-4.2c0.1-5.4,3-9.5,7.2-12.7c2-1.6,4.2-2.6,6.9-2
		c2.1,0.5,3.4,2.3,3,4.4c-0.3,1.4-0.7,2.7-0.9,4.1c-0.5,3.4,1.6,5.2,4.5,3.5c3-1.8,5.8-4.1,8.2-6.7c0.9-1,0.6-3.2,0.9-4.8
		c0.4-2.7,0.8-5.3,1.2-8c0.1-0.6,0.3-1.2,0.5-1.7c0.5-1.2,1.3-2.1,2.8-1.6c1.4,0.5,1.7,1.6,1.5,2.9c-0.5,2.7-1.2,5.4-1.7,8.1
		c-0.4,2.3-0.6,4.6-0.9,7.1c1.9-1.9,3.3-3.9,5.2-5.3c3.8-3,8.4-1.5,9.5,3c0.3,1.3,0.1,2.7,0.1,4.3c2.6-1.6,5.3-3.2,7.8-5
		c0.5-0.4,0.5-1.4,0.7-2.2c0.5-3.3,1-6.6,1.6-9.9c0.1-0.7,0.4-1.5,0.8-2c0.5-0.5,1.4-1.1,1.9-0.9c0.7,0.2,1.5,0.9,1.7,1.6
		c0.3,0.7,0,1.6-0.2,2.4c-0.8,4.6-1.7,9.2-2.5,13.8c0.2,0.1,0.4,0.1,0.6,0.2c0.5-0.6,0.9-1.3,1.5-1.9c1.3-1.3,2.5-2.7,3.9-3.7
		c2.1-1.5,4.3-1.7,6.6-0.1c2.1,1.6,3,4.2,2.3,6.8c-0.1,0.2-0.1,0.5-0.3,1.1c0.7-0.4,1.3-0.6,1.7-0.9c3.6-2.7,7.9-4.4,11.3-7.5
		c2.4-2.2,5.2-2.2,7.4,0.4c1.8,2.1,8.2,3.3,10.7,2.1c0.5-0.2,0.7-1.1,1.2-1.5c0.8-0.6,1.7-1,2.6-1.4c0.4,0.8,1.1,1.7,1.1,2.5
		c-0.1,1.4-0.6,2.9-1,4.3c-0.2,1-0.5,1.9-0.3,3.1c0.5-0.7,1-1.3,1.5-2c1.4-1.8,2.7-3.7,4.4-5.2c3.2-2.9,6.8-1.5,7.6,2.7
		c0.3,1.7,0.4,3.3,0.8,5c0.5,2,1.7,2.9,3.4,1.8c2.9-1.9,5.6-4.3,8.3-6.6c0.4-0.3,0.2-1.2,0.5-1.7c0.4-0.8,0.7-1.8,1.4-2.4
		c0.7-0.5,1.8-0.6,2.7-0.9c0.2,0.8,0.7,1.7,0.7,2.5c-0.1,2.3-0.7,4.7-0.6,7c0,1.5,0.5,3.7,1.5,4.3c1,0.5,3.1-0.3,4.3-1.2
		c2.8-2.1,5.3-4.6,7.9-6.9c0.4-0.4,0.8-0.9,1.2-1.3c0.2,0,0.5,0.1,0.7,0.1c-0.1,0.9,0.2,2-0.3,2.7c-2.7,4.4-6.2,8.1-10.9,10.5
		c-3.6,1.8-6.8,0.4-8.2-3.5c-0.5-1.4-0.7-2.9-1.1-4.5c-1.9,1.6-3.8,3.2-5.8,4.6c-0.9,0.7-2,1.1-3.1,1.4c-3,0.8-5.2-0.4-6.1-3.3
		c-0.6-1.8-0.8-3.8-1.2-5.7c-0.4-1.9-1.3-2.1-2.5-0.7c-1.6,1.8-2.9,3.9-4.4,5.8c-0.9,1.1-1.9,2.1-2.9,3.1c-1.7,1.5-3.2,1.1-3.6-1.1
		c-0.3-1.7-0.2-3.5-0.2-5.2c0-0.9,0.2-1.8,0.3-2.9c-1.5,0.1-2.8,0.3-4.1,0.2c-1.3-0.1-2.5-0.4-3.9-0.7c0.4,4-1.3,7.1-4.1,9.7
		c-2.6,2.3-5.7,3-9,2.9c-2.3-0.1-4.2-2.4-4.2-4.9c0-1.2,0.2-2.5,0.4-4.5c-4.6,3.2-8.9,6-13.1,8.9c-1.5,1.1-3,2.2-4.5,3.3
		c-0.7,0-1.3,0-2,0c-1.6-1-1.5-2.2-0.1-3.3c1.4-1.1,2.9-2.1,4.3-3.3c1.6-1.3,3.2-2.6,4.7-4.1c1.3-1.4,1.6-3.2,1.1-5.1
		c-0.5-1.9-1.4-2.3-3.1-1.3c-0.6,0.4-1.2,0.8-1.7,1.4c-2.9,3.1-5.7,6.1-6.1,10.6c-0.1,1.4-0.9,2.5-2.5,2.4c-1.7-0.1-1.6-1.5-1.7-2.7
		c-0.1-0.6,0.1-1.2,0.1-1.8c0-1.9,0-3.8,0-6.4c-5.4,3.7-10.5,7.1-15.5,10.6c-1.5,1-3,2-4.5,3C50.1,78.3,49.6,78.3,49.1,78.3z
		 M108.7,63.7c0.4-2.1-1.4-2.7-3.1-3.5c-1.6-0.7-1.9,0.9-2.5,1.6c-1.1,1.3-2.1,2.8-3,4.3c-0.5,1-0.8,2.1-0.9,3.2
		c-0.2,2.2,0.5,2.8,2.7,2.5C105.2,71.4,108.7,67.3,108.7,63.7z M19,70.1c0,2.1,0.7,2.5,2.4,1.6c3.8-2.1,6.1-5.4,6.9-9.6
		c0.1-0.6,0-1.7-0.5-2c-0.4-0.3-1.5-0.2-2,0.1C21.8,62.4,20,66.2,19,70.1z"/>
	<path id="XMLID_2763_" class="st0" d="M198.3,75.1c-7,0-14,0-21,0c-0.5,0-1.4-0.5-1.6-0.9c-0.6-1.5-1.1-3-1.2-4.6
		c0-2.1,1.4-3.4,3.5-3.4c1.4,0,2.9,0.5,4.3,0.9c1.2,0.3,2.4,1,3.6,1.2c2.9,0.5,3.9-0.3,4.3-3.1c0.1-0.5,0.1-0.9,0.2-1.4
		c0.6-5,2.4-6.6,7.4-6.5c4.2,0.1,7.9-0.8,10.7-4.1c2.5-2.9,2.2-4.8-1.1-6.8c-0.7-0.5-1.5-0.9-2.3-1.2c-5.6-2.1-9.8-5.9-13.9-10.1
		c-4.3-4.4-8.7-8.8-13.3-13c-1.5-1.4-3.6-2.4-5.4-3.4c-0.7-0.4-1.6-0.4-3.1-0.7c0.7,2.1,0.9,3.9,1.9,5.1c2.3,3,4.8,5.8,7.5,8.4
		c2.5,2.4,5.4,4.3,8,6.4c1.1,1,2.1,2.1,3.1,3.2c-0.1,0.2-0.3,0.5-0.4,0.7c-1.5-0.4-3.2-0.7-4.6-1.3c-6.9-2.9-12.6-7.5-17.8-12.6
		c-4.4-4.2-8.3-8.9-10.9-14.4c-1.3-2.8-2.3-5.6-1.8-8.8c0.5-2.7,1.4-3.5,4-2.9c2.8,0.7,5.8,1.5,8.3,2.9c9.9,5.4,17.5,13.3,23.8,22.5
		c2,2.9,4.1,5.8,6.3,8.7c2.2,2.9,4.9,4.9,8.3,6.1c1.5,0.5,3,1.2,4.5,1.9c5,2.3,6,7.4,2.4,11.6c-2.7,3.1-6.4,4.4-10.2,5.4
		c-1.2,0.3-2.5,0.6-3.8,0.7c-1.6,0.1-2.4,1.1-2.5,2.4c-0.2,2.6-1.1,5.3,1.8,7.2c0.9,0.6,1.2,2.2,1.7,3.3
		C198.7,74.8,198.5,74.9,198.3,75.1z"/>
	<path id="XMLID_2762_" class="st0" d="M8.4,50.9c2.2-3.4,4.1-7.1,6.6-10.3c5.9-7.7,13.7-12,23.6-11.8c1.7,0,3.4,0.6,5.1,1.1
		c1.6,0.5,2.7,1.9,2.3,3.6c-0.3,1.5-1.2,3-2.1,4.3c-0.2,0.4-1.4,0.3-2,0.2c-6.7-1.1-13.1-0.5-18.9,3.6c-5.2,3.7-8.4,9-10.8,14.8
		c-1.9,4.6-3.2,9.3-3.5,14.2c-0.1,1,0,2.1-0.5,2.9c-0.6,1-1.6,2.1-2.6,2.4c-1.5,0.4-2.6-0.7-2.9-2.1c-0.6-2.5-1.3-5.1-1.4-7.7
		C0.6,53.8,2.4,41.8,5,29.9c0.1-0.3,0.2-0.6,0.3-1c0.6-1.5,1.2-3.2,3.2-3.2c2.1,0,3.1,1.9,3.2,3.6c0.2,2.7-0.1,5.5-0.6,8.1
		c-0.9,4.5-2.1,8.9-3.1,13.4C8.1,50.8,8.2,50.9,8.4,50.9z"/>
	<path id="XMLID_2761_" class="st0" d="M150.8,29.9c8.7,0.1,16.1,3.4,22.9,8.5c0.6,0.5,1.2,1,1.8,1.6c0.9,1,1.9,2.1,0.8,3.5
		c-0.8,1.1-3.1,1.5-4.4,0.9c-0.6-0.3-1.1-0.7-1.6-1.2c-6.3-5.1-13.4-6.2-21-4.4c-4.2,1-7.3,3.8-10.4,6.6c-1.5,1.3-2.9,2.8-4.3,4.2
		c-2.2,2.1-4.8,3-7.8,3.3c-1.6,0.2-2.5-0.6-2.4-1.9c0.2-2.4,0.5-4.9,1.5-6.9c3.5-6.9,9.5-11,16.9-13
		C145.3,30.5,148.1,30.3,150.8,29.9z"/>
	<path id="XMLID_2760_" class="st0" d="M155,51.4c-0.9-0.7-2.2-1.3-2.5-2.1c-0.4-1.4,1.9-3.5,3.5-3.4c1.3,0,2.4,0.5,2.4,2.1
		C158.4,49.7,157.2,50.9,155,51.4z"/>
</g>
</svg>
